<svg width="193" height="154" viewBox="0 0 193 154" fill="none" xmlns="http://www.w3.org/2000/svg">
<path d="M130.024 135.444C99.0104 120.611 93.7083 127.092 67.4401 140.772C38.9688 155.604 13.6205 133.983 10.5458 115.334C1.80591 62.1527 32.0446 13.5568 67.658 2.87443C88.1399 -3.2737 127.675 2.66949 130.072 37.4833C131.162 53.3147 123.85 67.8653 141.282 73.5524C159.343 79.4443 187.257 64.7144 194.544 94.3792C201.759 123.788 159.028 149.277 130.024 135.418V135.444Z" fill="#F3F3F3"/>
<path d="M97.9374 153.388C151.939 153.388 195.715 151.132 195.715 148.349C195.715 145.566 151.939 143.31 97.9374 143.31C43.9362 143.31 0.159668 145.566 0.159668 148.349C0.159668 151.132 43.9362 153.388 97.9374 153.388Z" fill="#E8E8E8"/>
<path d="M19.0437 146.613L142.807 147.202L155.614 74.0904L41.1962 73.5269L19.0437 146.613Z" fill="#9F9F9F"/>
<path d="M19.0437 146.613L23.4742 146.638L44.973 73.5525L41.1962 73.5269L19.0437 146.613Z" fill="#323232"/>
<path d="M58.8214 146.818L142.807 147.202L155.614 74.0904L41.1963 73.5269L39.0173 80.7509L58.8214 146.818Z" fill="#323232"/>
<path d="M179.219 147.381L63.7603 146.843L41.1963 73.5269L155.614 74.0904L179.219 147.381Z" fill="#585858"/>
<path d="M174.087 144.999L69.2561 144.486L48.7742 77.9585L152.661 78.4452L174.087 144.999Z" fill="#F3F3F3"/>
<path d="M150.385 88.1288L56.5696 88.0263L55.6497 85.0547L149.537 85.4902L150.385 88.1288Z" fill="#EC1300"/>
<path d="M70.297 101.27L60.3466 101.219L56.7634 90.6646L66.7139 90.7158L70.297 101.27Z" fill="#323232"/>
<path d="M82.4749 101.321L72.5245 101.27L68.9656 90.7158L78.916 90.767L82.4749 101.321Z" fill="#323232"/>
<path d="M94.6769 101.372L84.7264 101.321L81.1675 90.7925L91.0937 90.8437L94.6769 101.372Z" fill="#323232"/>
<path d="M106.879 101.449L96.9283 101.398L93.3452 90.8438L103.296 90.895L106.879 101.449Z" fill="#323232"/>
<path d="M118.427 101.501L108.477 101.449L104.918 90.895L114.868 90.9462L118.427 101.501Z" fill="#323232"/>
<path d="M130.629 101.552L120.679 101.501L117.096 90.9463L127.046 90.9975L130.629 101.552Z" fill="#323232"/>
<path d="M142.831 101.603L132.881 101.552L129.298 91.0229L139.248 91.0742L142.831 101.603Z" fill="#323232"/>
<path d="M155.033 101.654L145.083 101.629L141.5 91.0742L151.45 91.1254L155.033 101.654Z" fill="#323232"/>
<path d="M74.6793 114.181L64.7289 114.155L61.1458 103.601L71.0962 103.652L74.6793 114.181Z" fill="#323232"/>
<path d="M86.8568 114.258L76.9063 114.207L73.3474 103.652L83.2979 103.704L86.8568 114.258Z" fill="#323232"/>
<path d="M99.0589 114.309L89.1085 114.258L85.5496 103.704L95.5 103.755L99.0589 114.309Z" fill="#323232"/>
<path d="M111.261 114.361L101.31 114.309L97.7273 103.781L107.702 103.832L111.261 114.361Z" fill="#323232"/>
<path d="M122.833 114.412L112.883 114.361L109.3 103.832L119.25 103.883L122.833 114.412Z" fill="#323232"/>
<path d="M135.011 114.489L125.061 114.438L121.502 103.883L131.452 103.935L135.011 114.489Z" fill="#323232"/>
<path d="M147.213 114.54L137.263 114.488L133.68 103.934L143.63 103.985L147.213 114.54Z" fill="#323232"/>
<path d="M159.415 114.591L149.465 114.54L145.882 104.011L155.832 104.037L159.415 114.591Z" fill="#323232"/>
<path d="M79.0612 127.118L69.1107 127.067L65.5276 116.538L75.478 116.564L79.0612 127.118Z" fill="#323232"/>
<path d="M91.2633 127.169L81.3129 127.118L77.7297 116.589L87.6802 116.641L91.2633 127.169Z" fill="#323232"/>
<path d="M103.465 127.246L93.4903 127.195L89.9314 116.641L99.8818 116.692L103.465 127.246Z" fill="#323232"/>
<path d="M115.643 127.297L105.692 127.246L102.134 116.692L112.084 116.743L115.643 127.297Z" fill="#323232"/>
<path d="M127.215 127.348L117.265 127.297L113.682 116.743L123.632 116.794L127.215 127.348Z" fill="#323232"/>
<path d="M139.393 127.4L129.467 127.348L125.884 116.82L135.834 116.871L139.393 127.4Z" fill="#323232"/>
<path d="M151.595 127.477L141.645 127.425L138.062 116.871L148.012 116.922L151.595 127.477Z" fill="#323232"/>
<path d="M163.797 127.528L153.847 127.477L150.264 116.922L160.214 116.974L163.797 127.528Z" fill="#323232"/>
<path d="M83.4435 140.055L73.493 140.004L69.9099 129.449L79.8604 129.5L83.4435 140.055Z" fill="#323232"/>
<path d="M95.6451 140.106L85.6947 140.055L82.1116 129.5L92.062 129.552L95.6451 140.106Z" fill="#323232"/>
<path d="M107.847 140.157L97.8968 140.106L94.3137 129.577L104.264 129.628L107.847 140.157Z" fill="#323232"/>
<path d="M120.025 140.234L110.075 140.183L106.516 129.628L116.466 129.68L120.025 140.234Z" fill="#323232"/>
<path d="M131.598 140.285L121.647 140.234L118.064 129.68L128.014 129.731L131.598 140.285Z" fill="#323232"/>
<path d="M143.8 140.336L133.849 140.285L130.266 129.731L140.217 129.782L143.8 140.336Z" fill="#323232"/>
<path d="M155.977 140.388L146.027 140.336L142.468 129.808L152.418 129.859L155.977 140.388Z" fill="#323232"/>
<path d="M168.179 140.439L158.229 140.413L154.67 129.859L164.62 129.91L168.179 140.439Z" fill="#323232"/>
<path d="M62.7191 77.8815C62.7191 79.1112 61.7265 80.0846 60.4918 80.0846C59.257 80.0846 58.2644 79.0855 58.2644 77.8559C58.2644 76.6263 59.2812 75.6528 60.4918 75.6528C61.7265 75.6528 62.7191 76.6519 62.7191 77.8815Z" fill="black"/>
<path d="M60.9759 78.3171L60.1286 77.6767C60.1286 77.6767 61.4117 75.7042 61.0728 73.8597C60.9033 72.9887 60.3707 72.2458 59.4991 71.6823C59.4991 71.6823 58.9422 71.4773 58.2159 71.4773C57.8044 71.4773 57.3444 71.5542 56.8844 71.7591C56.1823 72.0921 55.7465 72.6045 55.4318 73.5779H54.197C54.6086 72.2971 55.5044 71.2468 56.4486 70.76C58.0707 69.9659 59.8622 70.6576 59.9349 70.7088C61.218 71.3749 61.8475 72.4508 62.0654 73.6292C62.5254 75.9347 61.0243 78.189 60.9517 78.2915L60.9759 78.3171Z" fill="#323232"/>
<path d="M75.2115 77.9587C75.2115 79.1883 74.1947 80.1618 72.9842 80.1618C71.7495 80.1618 70.7568 79.1627 70.7568 77.9331C70.7568 76.7034 71.7495 75.73 72.9842 75.73C74.2189 75.73 75.2115 76.7291 75.2115 77.9587Z" fill="black"/>
<path d="M73.4686 78.3941L72.6213 77.7537C72.6213 77.7537 73.9044 75.7812 73.5413 73.9367C73.3718 73.0657 72.8392 72.3484 71.9676 71.7593C71.9676 71.7849 71.4108 71.5543 70.6844 71.5543C70.2729 71.5543 69.8129 71.6312 69.3771 71.8361C68.675 72.1691 68.2392 72.6815 67.9245 73.6549H66.6655C67.0771 72.3741 67.9729 71.3238 68.9171 70.837C70.5392 70.0173 72.3307 70.7346 72.4034 70.7602C73.6865 71.4262 74.316 72.5022 74.5339 73.7062C74.9939 76.0117 73.4928 78.266 73.4202 78.3685L73.4686 78.3941Z" fill="#323232"/>
<path d="M89.7621 78.0099C89.7621 79.2396 88.7452 80.213 87.5347 80.213C86.3 80.213 85.3074 79.214 85.3074 77.9843C85.3074 76.7547 86.3242 75.7812 87.5347 75.7812C88.7694 75.7812 89.7621 76.7803 89.7621 78.0099Z" fill="black"/>
<path d="M88.0186 78.4453L87.1713 77.8049C87.1713 77.8049 88.4544 75.8323 88.1155 73.9879C87.946 73.1169 87.4134 72.374 86.5418 71.8104C86.5418 71.836 85.985 71.6055 85.2587 71.6055C84.8471 71.6055 84.3871 71.6823 83.9271 71.8873C83.2492 72.2203 82.7892 72.7327 82.4745 73.7061H81.2397C81.6513 72.4252 82.5471 71.3749 83.4913 70.8882C85.1134 70.0941 86.905 70.7857 86.9776 70.8114C88.2607 71.4774 88.8902 72.5533 89.1081 73.7317C89.5681 76.0373 88.0671 78.2916 88.0186 78.3941V78.4453Z" fill="#323232"/>
<path d="M102.255 78.0866C102.255 79.3162 101.262 80.2897 100.027 80.2897C98.7927 80.2897 97.8 79.2906 97.8 78.061C97.8 76.8314 98.7927 75.8579 100.027 75.8579C101.262 75.8579 102.255 76.857 102.255 78.0866Z" fill="black"/>
<path d="M100.511 78.5222L99.664 77.8818C99.664 77.8818 100.947 75.9093 100.584 74.0648C100.415 73.1938 99.8819 72.4509 99.0103 71.8873C99.0103 71.913 98.4535 71.6824 97.7272 71.6824C97.3156 71.6824 96.8556 71.7593 96.4198 71.9642C95.7419 72.2972 95.2819 72.8096 94.9672 73.783H93.7083C94.1198 72.5022 95.0156 71.4518 95.9598 70.9651C97.5819 70.171 99.3735 70.8627 99.4461 70.9139C100.729 71.5799 101.359 72.6559 101.577 73.8599C102.037 76.1654 100.536 78.4197 100.463 78.5222H100.511Z" fill="#323232"/>
<path d="M117.846 78.1633C117.846 79.3929 116.829 80.3663 115.619 80.3663C114.384 80.3663 113.391 79.3673 113.391 78.1377C113.391 76.908 114.408 75.9346 115.619 75.9346C116.853 75.9346 117.846 76.9336 117.846 78.1633Z" fill="black"/>
<path d="M116.103 78.5989L115.256 77.9584C115.256 77.9584 116.539 75.9859 116.2 74.1415C116.03 73.2705 115.498 72.5276 114.626 71.964C114.626 71.9896 114.069 71.7591 113.343 71.7591C112.931 71.7591 112.471 71.8359 112.011 72.0409C111.333 72.3739 110.873 72.8862 110.559 73.8597H109.324C109.736 72.5788 110.631 71.5285 111.576 71.0418C113.198 70.2477 114.989 70.9393 115.062 70.9905C116.345 71.6566 116.974 72.7325 117.192 73.9109C117.652 76.2165 116.151 78.4708 116.079 78.5732L116.103 78.5989Z" fill="#323232"/>
<path d="M130.339 78.2145C130.339 79.4442 129.322 80.4176 128.111 80.4176C126.877 80.4176 125.884 79.4185 125.884 78.1889C125.884 76.9593 126.877 75.9858 128.111 75.9858C129.346 75.9858 130.339 76.9849 130.339 78.2145Z" fill="black"/>
<path d="M128.595 78.65L127.748 78.0095C127.748 78.0095 129.031 76.037 128.668 74.1926C128.498 73.3216 127.966 72.5787 127.094 72.0151C127.094 72.0407 126.537 71.8102 125.835 71.8102C125.424 71.8102 124.94 71.887 124.504 72.092C123.826 72.425 123.366 72.9373 123.051 73.9108H121.816C122.228 72.6299 123.124 71.5796 124.068 71.0929C125.69 70.2731 127.482 70.9904 127.554 71.016C128.837 71.6821 129.467 72.758 129.685 73.962C130.145 76.2676 128.644 78.5219 128.595 78.6244V78.65Z" fill="#323232"/>
<path d="M144.889 78.2917C144.889 79.5213 143.872 80.4948 142.662 80.4948C141.427 80.4948 140.434 79.4957 140.434 78.2661C140.434 77.0364 141.451 76.063 142.662 76.063C143.896 76.063 144.889 77.0621 144.865 78.2917H144.889Z" fill="black"/>
<path d="M143.146 78.7273L142.298 78.0869C142.298 78.0869 143.606 76.1143 143.218 74.2699C143.049 73.3989 142.516 72.656 141.645 72.0924C141.645 72.118 141.088 71.8875 140.361 71.8875C139.95 71.8875 139.466 71.9643 139.03 72.1693C138.352 72.5023 137.892 73.0146 137.577 73.9881H136.343C136.754 72.7072 137.65 71.6569 138.594 71.1702C140.24 70.3761 142.008 71.0677 142.08 71.119C143.339 71.785 143.993 72.8609 144.211 74.065C144.671 76.3705 143.17 78.6248 143.097 78.7273H143.146Z" fill="#323232"/>
<path d="M106.071 104.988L101.596 112.542L102.786 113.331L107.26 105.777L106.071 104.988Z" fill="#EC1300"/>
<path d="M101.395 104.878L100.419 105.945L107.743 113.445L108.72 112.378L101.395 104.878Z" fill="#EC1300"/>
<path d="M158.602 118.159L154.131 125.715L155.321 126.504L159.792 118.948L158.602 118.159Z" fill="#EC1300"/>
<path d="M153.939 118.026L152.963 119.094L160.29 126.591L161.266 125.523L153.939 118.026Z" fill="#EC1300"/>
<path d="M86.0607 117.84L81.5811 125.39L82.7703 126.18L87.25 118.63L86.0607 117.84Z" fill="#EC1300"/>
<path d="M81.3863 117.666L80.4102 118.734L87.7371 126.232L88.7133 125.164L81.3863 117.666Z" fill="#EC1300"/>
<path d="M120.606 132.139L125.061 138.492L129.104 128.322L124.867 134.931L120.606 132.139Z" fill="#FEB801"/>
<path d="M72.6211 92.7911L77.0758 99.1442L81.1189 88.9741L76.8821 95.5834L72.6211 92.7911Z" fill="#FEB801"/>
<path d="M131.937 50.8557L138.449 59.8473L137.069 49.3955L131.937 50.8557Z" fill="#E5E5E5"/>
<path d="M108.792 51.496H136.634C139.321 51.496 141.621 49.3954 141.96 46.5519L143.098 37.4578C143.533 34.0507 141.016 31.0278 137.771 31.0278H107.63C104.385 31.0278 101.868 34.0507 102.303 37.4578L103.441 46.5519C103.804 49.3698 106.08 51.496 108.767 51.496H108.792Z" fill="#E5E5E5"/>
<path d="M127.022 41.2748C127.022 42.3763 127.845 43.2473 128.886 43.2473C129.927 43.2473 130.75 42.3763 130.75 41.2748C130.75 40.1732 129.927 39.3022 128.886 39.3022C127.845 39.3022 127.022 40.1732 127.022 41.2748Z" fill="white"/>
<path d="M120.848 41.2748C120.848 42.3763 121.672 43.2473 122.713 43.2473C123.754 43.2473 124.577 42.3763 124.577 41.2748C124.577 40.1732 123.754 39.3022 122.713 39.3022C121.672 39.3022 120.848 40.1732 120.848 41.2748Z" fill="white"/>
<path d="M114.675 41.2748C114.675 42.3763 115.498 43.2473 116.539 43.2473C117.58 43.2473 118.403 42.3763 118.403 41.2748C118.403 40.1732 117.58 39.3022 116.539 39.3022C115.498 39.3022 114.675 40.1732 114.675 41.2748Z" fill="white"/>
</svg>
