<svg width="102" height="102" viewBox="0 0 102 102" fill="none" xmlns="http://www.w3.org/2000/svg">
<path opacity="0.5" d="M8.5 51C8.5 30.9653 8.5 20.948 14.724 14.724C20.948 8.5 30.9653 8.5 51 8.5C71.0347 8.5 81.052 8.5 87.276 14.724C93.5 20.948 93.5 30.9653 93.5 51C93.5 71.0347 93.5 81.052 87.276 87.276C81.052 93.5 71.0347 93.5 51 93.5C30.9653 93.5 20.948 93.5 14.724 87.276C8.5 81.052 8.5 71.0347 8.5 51Z" fill="black"/>
<path fill-rule="evenodd" clip-rule="evenodd" d="M93.3412 35.7513C92.7359 41.0514 90.4007 46.1914 86.3355 50.2566C79.9926 56.5995 71.0329 58.7307 62.9314 56.6503C61.6248 56.3148 60.2128 56.6118 59.2589 57.5657L52.7578 64.0668L52.7456 64.0546L46.551 57.9279C45.2994 56.6899 43.2812 56.701 42.0433 57.9526C40.8054 59.2043 40.8165 61.2225 42.0681 62.4604L48.25 68.5746L46.1109 70.7136C44.985 71.8396 43.4083 72.3927 41.8257 72.2168L34.4286 71.3949C33.64 71.3073 32.9046 70.9539 32.3435 70.3928L31.6061 69.6554C31.045 69.0943 30.6916 68.359 30.604 67.5703L29.7821 60.1733C29.6063 58.5907 30.1593 57.0139 31.2853 55.888L44.4323 42.741C45.3862 41.7871 45.6842 40.3741 45.3486 39.0675C43.2682 30.966 45.3994 22.0063 51.7424 15.6634C55.8076 11.5981 60.9478 9.26292 66.248 8.65771C70.1015 8.79934 73.3908 9.06729 76.2284 9.57423C79.9269 10.7078 83.4096 12.7375 86.3355 15.6634C89.2614 18.5892 91.291 22.0719 92.4246 25.7702C92.9316 28.608 93.1995 31.8975 93.3412 35.7513ZM63.6997 28.2823C66.4659 25.5161 70.9508 25.5161 73.717 28.2823C76.4832 31.0485 76.4832 35.5334 73.717 38.2996C70.9508 41.0658 66.4659 41.0658 63.6997 38.2996C60.9335 35.5334 60.9335 31.0485 63.6997 28.2823Z" fill="black"/>
</svg>
