<svg width="103" height="103" viewBox="0 0 103 103" fill="none" xmlns="http://www.w3.org/2000/svg">
<path opacity="0.5" d="M9 68.6666C9 56.528 9 50.4586 12.7344 46.6876C16.4688 42.9166 22.4792 42.9166 34.5 42.9166H68.5C80.5208 42.9166 86.5312 42.9166 90.2656 46.6876C94 50.4586 94 56.528 94 68.6666C94 80.8053 94 86.8746 90.2656 90.6456C86.5312 94.4166 80.5208 94.4166 68.5 94.4166H34.5C22.4792 94.4166 16.4688 94.4166 12.7344 90.6456C9 86.8746 9 80.8053 9 68.6666Z" fill="black"/>
<path d="M34.5 72.9583C36.8472 72.9583 38.75 71.0369 38.75 68.6667C38.75 66.2964 36.8472 64.375 34.5 64.375C32.1528 64.375 30.25 66.2964 30.25 68.6667C30.25 71.0369 32.1528 72.9583 34.5 72.9583Z" fill="black"/>
<path d="M51.5 72.9583C53.8472 72.9583 55.75 71.0369 55.75 68.6667C55.75 66.2964 53.8472 64.375 51.5 64.375C49.1528 64.375 47.25 66.2964 47.25 68.6667C47.25 71.0369 49.1528 72.9583 51.5 72.9583Z" fill="black"/>
<path d="M72.75 68.6667C72.75 71.0369 70.8472 72.9583 68.5 72.9583C66.1528 72.9583 64.25 71.0369 64.25 68.6667C64.25 66.2964 66.1528 64.375 68.5 64.375C70.8472 64.375 72.75 66.2964 72.75 68.6667Z" fill="black"/>
<path d="M29.1875 34.3334C29.1875 21.8897 39.1771 11.8021 51.5 11.8021C63.8229 11.8021 73.8125 21.8897 73.8125 34.3334V42.932C76.2238 42.9548 78.3323 43.0112 80.1875 43.1511V34.3334C80.1875 18.3344 67.3437 5.36462 51.5 5.36462C35.6563 5.36462 22.8125 18.3344 22.8125 34.3334V43.1511C24.6677 43.0112 26.7762 42.9548 29.1875 42.932V34.3334Z" fill="black"/>
</svg>
